<?xml version="1.0" encoding="utf-8"?>
<!-- Generator: Adobe Illustrator 16.0.0, SVG Export Plug-In . SVG Version: 6.00 Build 0)  -->
<!DOCTYPE svg PUBLIC "-//W3C//DTD SVG 1.1//EN" "http://www.w3.org/Graphics/SVG/1.1/DTD/svg11.dtd">
<svg version="1.1" id="Layer_1" xmlns="http://www.w3.org/2000/svg" xmlns:xlink="http://www.w3.org/1999/xlink" x="0px" y="0px"
	 width="303.16px" height="241.333px" viewBox="0 0 303.16 241.333" enable-background="new 0 0 303.16 241.333"
	 xml:space="preserve">
<g id="Layer_8">
</g>
<g id="Layer_5">
</g>
<g id="Layer_4" display="none">
	
		<radialGradient id="SVGID_1_" cx="-438.4688" cy="688.7935" r="64.5044" gradientTransform="matrix(-4.371139e-08 -1 1 -4.371139e-08 -539.4282 -336.5938)" gradientUnits="userSpaceOnUse">
		<stop  offset="0.3632" style="stop-color:#FFF200"/>
		<stop  offset="1" style="stop-color:#FFFFFF;stop-opacity:0"/>
	</radialGradient>
	<path display="inline" fill="url(#SVGID_1_)" d="M194.417,43.029c14.198,12.5,23.156,30.81,23.156,51.213
		c0,37.67-30.538,68.208-68.208,68.208c-37.67,0-68.208-30.537-68.208-68.208c0-21.365,9.823-40.436,25.199-52.941"/>
</g>
<g id="Layer_3">
	<text transform="matrix(1 0 0 1 0 221.3433)" fill="#EAE8E8" font-family="'Comfortaa-Bold'" font-size="69.792">trip</text>
	<text transform="matrix(1 0 0 1 119.9551 221.3433)" fill="#FDBC52" font-family="'Comfortaa-Bold'" font-size="69.792">monk</text>
</g>
<g id="Layer_1_copy">
	<g id="XMLID_2_">
		<g>
			<path fill="#EDEDED" d="M165.169,42.179c-3.024-0.328-9.243-0.639-15.023-0.656c-5.688,0.017-12.41,0.37-15.04,0.656
				c-11.981,1.697-28.449,18.468-28.449,27.458l-0.336,0.025c-0.395-6.268-0.773-14.006-0.773-16.729
				c0.26-27.029,20.182-48.85,44.699-48.85c24.694,0,44.708,22.123,44.708,49.404c0,2.462-0.438,9.822-0.907,16.468l-0.429-0.025
				C193.618,60.94,177.159,43.884,165.169,42.179z"/>
			<path fill="#FFF0D3" d="M193.561,76.35c-1.008,22.434-13.166,33.146-29.131,33.944c-0.646,0.034-1.302,0.051-1.966,0.051h-2.134
				h-11.26h-11.158c-0.958,0-1.899-0.042-2.823-0.135c-15.124-1.437-26.609-14.376-28.164-32.507v-0.009
				c-0.16-1.462-0.387-4.52-0.605-8.032l0.336-0.025c0-8.99,16.468-25.761,28.449-27.458c2.63-0.286,9.352-0.639,15.04-0.656
				c5.78,0.017,11.998,0.328,15.023,0.656c11.99,1.706,28.449,18.762,28.449,27.752l0.429,0.025
				c-0.159,2.286-0.328,4.495-0.487,6.386C193.561,76.35,193.561,76.35,193.561,76.35z"/>
			<path fill="#FDBC52" d="M181.016,139.021c6.074,0.731,11.258,3.781,11.258,12.638c-0.116,8.409-10.385,13.862-16.711,13.862
				h-23.199h-5h-23.291c-4.411,0-10.696-2.554-14.258-6.865l0.378-0.327c19.392,0,50.135-29.08,50.135-47.422v-0.562h2.134
				c0.664,0,1.319-0.017,1.966-0.051v0.051C170.15,110.345,180.872,127.829,181.016,139.021z"/>
			<path fill="#D24E57" d="M118.327,139.021c0.059-4.638,1.966-10.368,4.587-15.478l0.765,0.387c9.814,0,25.391-7.99,25.391-13.023
				v-0.562h11.259v0.562c0,18.342-30.743,47.422-50.135,47.422l-0.378,0.327c-1.647-1.983-2.714-4.344-2.748-6.999
				C107.068,142.802,112.252,139.752,118.327,139.021z"/>
			<path fill="#FDBC52" d="M149.07,110.345v0.563c0,5.033-15.577,13.023-25.391,13.023l-0.765-0.386
				c3.697-7.218,8.806-13.2,12.158-13.2l0.017-0.135c0.924,0.093,1.865,0.135,2.823,0.135H149.07z"/>
		</g>
		<g>
			<path fill="none" stroke="#000000" stroke-width="3" stroke-miterlimit="10" d="M376.053,333c-0.445,0-0.883,0-1.328,0"/>
			<path fill="none" stroke="#000000" stroke-width="2" stroke-miterlimit="10" d="M193.561,76.35
				c-0.276,3.462-0.521,5.89-0.631,5.89"/>
			<path fill="none" stroke="#000000" stroke-width="2" stroke-miterlimit="10" d="M194.954,53.488
				c0,2.462-0.437,9.822-0.907,16.468c-0.16,2.286-0.328,4.495-0.486,6.386"/>
			<path fill="none" stroke="#000000" stroke-width="2" stroke-miterlimit="10" d="M106.926,77.694
				c-0.076-0.806-0.126-1.63-0.151-2.461"/>
			<path fill="none" stroke="#000000" stroke-width="2" stroke-miterlimit="10" d="M193.602,75.232
				c-0.009,0.378-0.023,0.748-0.041,1.109c0,0.008,0,0.008,0,0.008c-1.008,22.434-13.166,33.146-29.131,33.944
				c-0.646,0.034-1.302,0.051-1.966,0.051h-2.134h-11.26h-11.158c-0.958,0-1.899-0.042-2.823-0.135
				c-15.124-1.437-26.609-14.376-28.164-32.507"/>
			<path fill="none" stroke="#000000" stroke-width="2" stroke-miterlimit="10" d="M116.991,75.896
				c0,2.638,6.327,4.756,13.712,4.756"/>
			<path fill="none" stroke="#000000" stroke-width="2" stroke-miterlimit="10" d="M142.752,76.56c0,2.202-5.335,3.991-12.048,4.092
				c-0.21,0.008-0.42,0.008-0.63,0.008"/>
			<path fill="none" stroke="#000000" stroke-width="2" stroke-miterlimit="10" d="M181.754,75.896
				c0,2.588-5.764,4.688-12.973,4.756c-0.135,0.008-0.262,0.008-0.395,0.008"/>
			<path fill="none" stroke="#000000" stroke-width="2" stroke-miterlimit="10" d="M156.48,76.56c0,2.227,5.471,4.033,12.302,4.092
				c0.126,0.008,0.252,0.008,0.378,0.008"/>
			<path fill="none" stroke="#000000" stroke-miterlimit="10" d="M142.786,101.875c0,0.891,3.151,1.622,7.117,1.664
				c0.118,0,0.244,0,0.37,0"/>
			<path fill="none" stroke="#000000" stroke-miterlimit="10" d="M157.657,101.875c0,0.891-3.757,1.622-7.755,1.664
				c-0.126,0-0.244,0-0.37,0"/>
			<path fill="none" stroke="#000000" stroke-width="2" stroke-miterlimit="10" d="M105.539,53.488c0-0.185,0-0.37,0.009-0.555
				c0.26-27.029,20.182-48.85,44.699-48.85c24.694,0,44.708,22.123,44.708,49.404"/>
			<path fill="none" stroke="#000000" stroke-width="2" stroke-miterlimit="10" d="M105.548,52.933
				c0,2.722,0.378,10.46,0.773,16.729c0.218,3.512,0.445,6.57,0.605,8.032v0.009c0.067,0.58,0.118,0.907,0.16,0.907"/>
			<path fill="none" stroke="#000000" stroke-miterlimit="10" d="M106.657,69.637c0-8.99,16.468-25.761,28.449-27.458
				c0.185-0.025,0.361-0.051,0.538-0.067"/>
			<path fill="none" stroke="#000000" stroke-miterlimit="10" d="M135.106,42.179c2.63-0.286,9.352-0.639,15.04-0.656
				c0.151,0,0.302,0,0.454,0"/>
			<path fill="none" stroke="#000000" stroke-miterlimit="10" d="M193.618,69.931c0-8.99-16.459-26.046-28.449-27.752
				c-0.185-0.025-0.36-0.051-0.538-0.067"/>
			<path fill="none" stroke="#000000" stroke-miterlimit="10" d="M165.169,42.179c-3.024-0.328-9.243-0.639-15.023-0.656
				c-0.151,0-0.311,0-0.462,0"/>
			<path fill="none" stroke="#000000" stroke-width="2" stroke-miterlimit="10" d="M118.319,139.265c0-0.076,0-0.16,0.008-0.244
				c0.059-4.638,1.966-10.368,4.587-15.478c3.697-7.217,8.806-13.199,12.158-13.199"/>
			<path fill="none" stroke="#000000" stroke-width="2" stroke-miterlimit="10" d="M119.193,138.928
				c-0.294,0.025-0.58,0.059-0.866,0.093c-6.075,0.731-11.259,3.781-11.259,12.638"/>
			<path fill="none" stroke="#000000" stroke-width="2" stroke-miterlimit="10" d="M107.068,151.145
				c-0.008,0.168-0.008,0.344,0,0.514c0.034,2.654,1.101,5.016,2.748,6.998c3.562,4.312,9.847,6.865,14.258,6.865"/>
			<polyline fill="none" stroke="#000000" stroke-width="2" stroke-miterlimit="10" points="123.78,165.521 124.074,165.521 
				147.365,165.521 			"/>
			<path fill="none" stroke="#000000" stroke-width="2" stroke-miterlimit="10" d="M181.023,139.265c0-0.076,0-0.16-0.008-0.244
				c-0.145-11.192-10.865-28.676-16.586-28.676"/>
			<path fill="none" stroke="#000000" stroke-width="2" stroke-miterlimit="10" d="M180.141,138.928
				c0.295,0.025,0.58,0.059,0.875,0.093c6.074,0.731,11.258,3.781,11.258,12.638"/>
			<path fill="none" stroke="#000000" stroke-width="2" stroke-miterlimit="10" d="M192.273,151.145
				c0.009,0.176,0.009,0.344,0,0.514c-0.117,8.409-10.385,13.862-16.711,13.862"/>
			<polyline fill="none" stroke="#000000" stroke-width="2" stroke-miterlimit="10" points="176.695,165.521 175.562,165.521 
				152.363,165.521 147.365,165.521 			"/>
			<path fill="none" stroke="#000000" stroke-miterlimit="10" d="M117.739,139.391c0.47-0.042,5.495-0.252,7.402-0.252"/>
			<path fill="none" stroke="#000000" stroke-miterlimit="10" d="M117.739,139.391c-0.025,0-0.034,0-0.034,0"/>
			<path fill="none" stroke="#000000" stroke-miterlimit="10" d="M181.4,139.391c-0.469-0.042-5.494-0.252-7.401-0.252"/>
			<path fill="none" stroke="#000000" stroke-miterlimit="10" d="M181.4,139.391c0.024,0,0.035,0,0.035,0"/>
			<path fill="none" stroke="#000000" stroke-width="0.5" stroke-miterlimit="10" d="M149.07,110.908
				c0,5.033-15.577,13.023-25.391,13.023"/>
			<path fill="none" stroke="#000000" stroke-width="0.5" stroke-miterlimit="10" d="M160.329,110.908
				c0,18.34-30.743,47.42-50.135,47.42"/>
		</g>
	</g>
</g>
<g id="Layer_1_copy_2" opacity="0.3">
	<g id="XMLID_1_">
		<g>
			<path fill="#EAE8E8" d="M150.146,41.523c-5.688,0.017-12.41,0.37-15.04,0.656c-11.981,1.697-28.449,18.468-28.449,27.458
				l-0.336,0.025c-0.395-6.268-0.773-14.006-0.773-16.729c0.26-27.029,20.182-48.85,44.699-48.85
				c24.694,0,44.708,22.123,44.708,49.404c0,2.462-0.438,9.822-0.907,16.468l-0.429-0.025c0-8.99-16.459-26.046-28.449-27.752
				C162.145,41.851,155.926,41.54,150.146,41.523z"/>
			<path fill="#FFF0D3" d="M106.926,77.703v-0.009c-0.16-1.462-0.387-4.52-0.605-8.032l0.336-0.025
				c0-8.99,16.468-25.761,28.449-27.458c2.63-0.286,9.352-0.639,15.04-0.656c5.78,0.017,11.999,0.328,15.023,0.656
				c11.99,1.706,28.449,18.762,28.449,27.752l0.429,0.025c-0.16,2.286-0.328,4.495-0.486,6.386c0,0.008,0,0.008,0,0.008
				c-1.008,22.434-13.166,33.146-29.131,33.944c-0.646,0.034-1.302,0.051-1.966,0.051h-2.134h-11.26h-11.158
				c-0.958,0-1.899-0.042-2.823-0.135C119.966,108.773,108.48,95.834,106.926,77.703z"/>
			<path fill="#FDBC52" d="M181.016,139.021c6.074,0.731,11.258,3.781,11.258,12.638c-0.116,8.409-10.385,13.862-16.711,13.862
				h-23.199h-5h-23.291c-4.411,0-10.696-2.554-14.258-6.865l0.378-0.327c19.392,0,50.135-29.08,50.135-47.422v-0.562h2.134
				c0.664,0,1.319-0.017,1.966-0.051v0.051C170.15,110.345,180.872,127.829,181.016,139.021z"/>
			<path fill="#FDBC52" d="M118.327,139.021c0.059-4.638,1.966-10.368,4.587-15.478l0.765,0.387c9.814,0,25.391-7.99,25.391-13.023
				v-0.562h11.259v0.562c0,18.342-30.743,47.422-50.135,47.422l-0.378,0.327c-1.647-1.983-2.714-4.344-2.748-6.999
				C107.068,142.802,112.252,139.752,118.327,139.021z"/>
			<path fill="#FDBC52" d="M149.07,110.345v0.563c0,5.033-15.577,13.023-25.391,13.023l-0.765-0.386
				c3.697-7.218,8.806-13.2,12.158-13.2l0.017-0.135c0.924,0.093,1.865,0.135,2.823,0.135H149.07z"/>
		</g>
		<g>
			<path fill="none" stroke="#000000" stroke-width="3" stroke-miterlimit="10" d="M376.053,333c-0.445,0-0.883,0-1.328,0"/>
			<path fill="none" stroke="#000000" stroke-width="2" stroke-miterlimit="10" d="M193.561,76.35
				c-0.276,3.462-0.521,5.89-0.631,5.89"/>
			<path fill="none" stroke="#000000" stroke-width="2" stroke-miterlimit="10" d="M194.954,53.488
				c0,2.462-0.437,9.822-0.907,16.468c-0.16,2.286-0.328,4.495-0.486,6.386"/>
			<path fill="none" stroke="#000000" stroke-width="2" stroke-miterlimit="10" d="M106.926,77.694
				c-0.076-0.806-0.126-1.63-0.151-2.461"/>
			<path fill="none" stroke="#000000" stroke-width="2" stroke-miterlimit="10" d="M193.602,75.232
				c-0.009,0.378-0.023,0.748-0.041,1.109c0,0.008,0,0.008,0,0.008c-1.008,22.434-13.166,33.146-29.131,33.944
				c-0.646,0.034-1.302,0.051-1.966,0.051h-2.134h-11.26h-11.158c-0.958,0-1.899-0.042-2.823-0.135
				c-15.124-1.437-26.609-14.376-28.164-32.507"/>
			<path fill="none" stroke="#000000" stroke-width="2" stroke-miterlimit="10" d="M116.991,75.896
				c0,2.638,6.327,4.756,13.712,4.756"/>
			<path fill="none" stroke="#000000" stroke-width="2" stroke-miterlimit="10" d="M142.752,76.56c0,2.202-5.335,3.991-12.048,4.092
				c-0.21,0.008-0.42,0.008-0.63,0.008"/>
			<path fill="none" stroke="#000000" stroke-width="2" stroke-miterlimit="10" d="M181.754,75.896
				c0,2.588-5.764,4.688-12.973,4.756c-0.135,0.008-0.262,0.008-0.395,0.008"/>
			<path fill="none" stroke="#000000" stroke-width="2" stroke-miterlimit="10" d="M156.48,76.56c0,2.227,5.471,4.033,12.302,4.092
				c0.126,0.008,0.252,0.008,0.378,0.008"/>
			<path fill="none" stroke="#000000" stroke-miterlimit="10" d="M142.786,101.875c0,0.891,3.151,1.622,7.117,1.664
				c0.118,0,0.244,0,0.37,0"/>
			<path fill="none" stroke="#000000" stroke-miterlimit="10" d="M157.657,101.875c0,0.891-3.757,1.622-7.755,1.664
				c-0.126,0-0.244,0-0.37,0"/>
			<path fill="none" stroke="#000000" stroke-width="2" stroke-miterlimit="10" d="M105.539,53.488c0-0.185,0-0.37,0.009-0.555
				c0.26-27.029,20.182-48.85,44.699-48.85c24.694,0,44.708,22.123,44.708,49.404"/>
			<path fill="none" stroke="#000000" stroke-width="2" stroke-miterlimit="10" d="M105.548,52.933
				c0,2.722,0.378,10.46,0.773,16.729c0.218,3.512,0.445,6.57,0.605,8.032v0.009c0.067,0.58,0.118,0.907,0.16,0.907"/>
			<path fill="none" stroke="#000000" stroke-miterlimit="10" d="M106.657,69.637c0-8.99,16.468-25.761,28.449-27.458
				c0.185-0.025,0.361-0.051,0.538-0.067"/>
			<path fill="none" stroke="#000000" stroke-miterlimit="10" d="M135.106,42.179c2.63-0.286,9.352-0.639,15.04-0.656
				c0.151,0,0.302,0,0.454,0"/>
			<path fill="none" stroke="#000000" stroke-miterlimit="10" d="M193.618,69.931c0-8.99-16.459-26.046-28.449-27.752
				c-0.185-0.025-0.36-0.051-0.538-0.067"/>
			<path fill="none" stroke="#000000" stroke-miterlimit="10" d="M165.169,42.179c-3.024-0.328-9.243-0.639-15.023-0.656
				c-0.151,0-0.311,0-0.462,0"/>
			<path fill="none" stroke="#000000" stroke-width="2" stroke-miterlimit="10" d="M118.319,139.265c0-0.076,0-0.16,0.008-0.244
				c0.059-4.638,1.966-10.368,4.587-15.478c3.697-7.217,8.806-13.199,12.158-13.199"/>
			<path fill="none" stroke="#000000" stroke-width="2" stroke-miterlimit="10" d="M119.193,138.928
				c-0.294,0.025-0.58,0.059-0.866,0.093c-6.075,0.731-11.259,3.781-11.259,12.638"/>
			<path fill="none" stroke="#000000" stroke-width="2" stroke-miterlimit="10" d="M107.068,151.145
				c-0.008,0.168-0.008,0.344,0,0.514c0.034,2.654,1.101,5.016,2.748,6.998c3.562,4.312,9.847,6.865,14.258,6.865"/>
			<polyline fill="none" stroke="#000000" stroke-width="2" stroke-miterlimit="10" points="123.78,165.521 124.074,165.521 
				147.365,165.521 			"/>
			<path fill="none" stroke="#000000" stroke-width="2" stroke-miterlimit="10" d="M181.023,139.265c0-0.076,0-0.16-0.008-0.244
				c-0.145-11.192-10.865-28.676-16.586-28.676"/>
			<path fill="none" stroke="#000000" stroke-width="2" stroke-miterlimit="10" d="M180.141,138.928
				c0.295,0.025,0.58,0.059,0.875,0.093c6.074,0.731,11.258,3.781,11.258,12.638"/>
			<path fill="none" stroke="#000000" stroke-width="2" stroke-miterlimit="10" d="M192.273,151.145
				c0.009,0.176,0.009,0.344,0,0.514c-0.117,8.409-10.385,13.862-16.711,13.862"/>
			<polyline fill="none" stroke="#000000" stroke-width="2" stroke-miterlimit="10" points="176.695,165.521 175.562,165.521 
				152.363,165.521 147.365,165.521 			"/>
			<path fill="none" stroke="#000000" stroke-miterlimit="10" d="M117.739,139.391c0.47-0.042,5.495-0.252,7.402-0.252"/>
			<path fill="none" stroke="#000000" stroke-miterlimit="10" d="M117.739,139.391c-0.025,0-0.034,0-0.034,0"/>
			<path fill="none" stroke="#000000" stroke-miterlimit="10" d="M181.4,139.391c-0.469-0.042-5.494-0.252-7.401-0.252"/>
			<path fill="none" stroke="#000000" stroke-miterlimit="10" d="M181.4,139.391c0.024,0,0.035,0,0.035,0"/>
			<path fill="none" stroke="#000000" stroke-width="0.5" stroke-miterlimit="10" d="M149.07,110.908
				c0,5.033-15.577,13.023-25.391,13.023"/>
			<path fill="none" stroke="#000000" stroke-width="0.5" stroke-miterlimit="10" d="M160.329,110.908
				c0,18.34-30.743,47.42-50.135,47.42"/>
		</g>
	</g>
</g>
<g id="Layer_6">
</g>
<g id="Layer_7">
</g>
</svg>
