<?xml version="1.0" encoding="utf-8"?>
<!-- Generator: Adobe Illustrator 16.0.0, SVG Export Plug-In . SVG Version: 6.00 Build 0)  -->
<!DOCTYPE svg PUBLIC "-//W3C//DTD SVG 1.1//EN" "http://www.w3.org/Graphics/SVG/1.1/DTD/svg11.dtd">
<svg version="1.1" id="Camada_1" xmlns="http://www.w3.org/2000/svg" xmlns:xlink="http://www.w3.org/1999/xlink" x="0px" y="0px"
	 width="100px" height="100px" viewBox="0 0 100 100" enable-background="new 0 0 100 100" xml:space="preserve">
<g>
	<path fill="#48BBF4" d="M30.57,29.837h0.354c3.127,0,5.675-2.375,5.675-5.295v-8.924c0-2.923-2.547-5.302-5.675-5.302H30.57
		c-3.13,0-5.675,2.379-5.675,5.302v8.924C24.895,27.462,27.439,29.837,30.57,29.837z"/>
	<path fill="#48BBF4" d="M85.647,20.273h-3.209v4.534c0,3.825-3.334,6.937-7.434,6.937h-0.357c-4.1,0-7.435-3.112-7.435-6.937
		v-4.534H52.729H38.246v4.534c0,3.825-3.334,6.937-7.434,6.937h-0.357c-4.099,0-7.433-3.112-7.433-6.937v-4.534h-3.21
		c-2.122,0-3.852,1.623-3.852,3.593v62.562c0,1.967,1.729,3.59,3.852,3.59h32.918h32.918c2.122,0,3.853-1.621,3.853-3.59V23.865
		C89.5,21.895,87.771,20.273,85.647,20.273z M83.391,83.645H52.729H22.068V40.85h30.662h30.661V83.645z"/>
	<path fill="#48BBF4" d="M74.536,29.837h0.355c3.13,0,5.674-2.375,5.674-5.295v-8.924c0-2.923-2.544-5.302-5.674-5.302h-0.355
		c-3.128,0-5.676,2.379-5.676,5.302v8.924C68.86,27.462,71.407,29.837,74.536,29.837z"/>
</g>
</svg>
