<?xml version="1.0" encoding="utf-8"?>
<!-- Generator: Adobe Illustrator 16.0.0, SVG Export Plug-In . SVG Version: 6.00 Build 0)  -->
<!DOCTYPE svg PUBLIC "-//W3C//DTD SVG 1.1//EN" "http://www.w3.org/Graphics/SVG/1.1/DTD/svg11.dtd">
<svg version="1.1" id="Layer_1" xmlns="http://www.w3.org/2000/svg" xmlns:xlink="http://www.w3.org/1999/xlink" x="0px" y="0px"
	 width="100px" height="100px" viewBox="0 0 100 100" enable-background="new 0 0 100 100" xml:space="preserve">
<g opacity="0.6">
	<path fill="#E5E5E5" d="M50,0C22.43,0,0,22.43,0,50c0,27.57,22.43,50.001,50,50.001c27.57,0,50.001-22.431,50.001-50.001
		C100.002,22.43,77.57,0,50,0z M50,91.479C27.13,91.479,8.523,72.871,8.523,50S27.13,8.523,50,8.523S91.479,27.13,91.479,50
		S72.871,91.479,50,91.479z"/>
	<path fill="#E5E5E5" d="M65.287,22.556C61.6,20.498,45.385,42.59,43.329,46.274c-2.058,3.686-12.298,29.115-8.613,31.171
		c3.685,2.056,19.901-20.034,21.958-23.719C58.73,50.041,68.973,24.613,65.287,22.556z M53.451,51.928
		c-1.064,1.906-3.472,2.588-5.377,1.525c-1.906-1.064-2.588-3.474-1.524-5.379c1.065-1.905,3.472-2.588,5.378-1.524
		C53.832,47.614,54.516,50.022,53.451,51.928z"/>
</g>
</svg>
