<?xml version="1.0" encoding="utf-8"?>
<!-- Generator: Adobe Illustrator 16.0.0, SVG Export Plug-In . SVG Version: 6.00 Build 0)  -->
<!DOCTYPE svg PUBLIC "-//W3C//DTD SVG 1.1//EN" "http://www.w3.org/Graphics/SVG/1.1/DTD/svg11.dtd">
<svg version="1.1" id="Layer_1" xmlns="http://www.w3.org/2000/svg" xmlns:xlink="http://www.w3.org/1999/xlink" x="0px" y="0px"
	 width="90px" height="90px" viewBox="0 0 90 90" enable-background="new 0 0 90 90" xml:space="preserve">
<g id="Layer_1_1_">
	<path fill="#DF7575" stroke="#DF7575" stroke-miterlimit="10" d="M75.375,76.79c-0.008-0.303-0.177-0.589-0.464-0.801l-1.6-1.187
		c-5.188-3.838-9.708-7.218-13.848-13.466c0.03-0.03,0.061-0.057,0.085-0.093l2.233-3.441c0.116-0.179,0.169-0.374,0.156-0.573
		l-0.058-0.938c-0.042-0.634-0.74-1.127-1.596-1.127h-4.389c-0.414-0.845-0.795-1.679-1.224-2.652
		c-0.194-0.452-0.36-0.836-0.526-1.26c0.027-0.03,0.058-0.057,0.086-0.088l2.229-3.159c0.139-0.19,0.196-0.405,0.18-0.616
		l-0.066-0.939c-0.047-0.629-0.742-1.119-1.591-1.119l-2.605-0.001c-2.025-8.29-2.896-17.954-2.841-20.143l1.005-0.601
		c0.375-0.225,0.593-0.565,0.593-0.926v-1.828c0-0.293-0.146-0.575-0.403-0.793l-3.068-2.562c-0.105-0.091-0.245-0.146-0.372-0.205
		v-6.974c0-0.656-0.716-1.186-1.597-1.186c-0.88,0-1.587,0.53-1.587,1.186v7.046c-0.082,0.044-0.175,0.075-0.244,0.133l-3.07,2.562
		c-0.257,0.217-0.398,0.5-0.398,0.792v1.828c0,0.359,0.215,0.701,0.59,0.927l0.998,0.597c0.053,2.243-0.813,11.871-2.841,20.145
		l-3.14-0.001c-0.849,0-1.544,0.494-1.59,1.123l-0.065,0.937c-0.02,0.24,0.062,0.476,0.229,0.68l2.58,3.158
		c0.037,0.053,0.118,0.076,0.166,0.119c-0.159,0.396-0.319,0.807-0.474,1.172c-0.38,0.882-0.825,1.789-1.248,2.644h-4.822
		c-0.846,0-1.547,0.496-1.593,1.12l-0.068,0.938c-0.021,0.226,0.056,0.453,0.202,0.646l2.578,3.44
		c0.025,0.033,0.063,0.061,0.092,0.094c-4.255,6.313-8.785,9.71-13.984,13.562l-1.393,1.03c-0.279,0.218-0.45,0.498-0.46,0.801
		l-0.12,2.516c-0.018,0.321,0.148,0.635,0.444,0.868c0.297,0.231,0.711,0.364,1.143,0.364h14.607c0.874,0,1.58-0.521,1.59-1.172
		c0-0.03,0.018-0.779,0.177-2.154c0.004-0.069,1.534-6.891,10.447-6.891h2.649c7.984,0,10.313,5.752,10.443,6.888
		c0.161,1.381,0.179,2.133,0.179,2.163c0.016,0.645,0.725,1.166,1.593,1.166H73.91c0.429,0,0.841-0.133,1.146-0.364
		c0.299-0.233,0.459-0.547,0.444-0.868L75.375,76.79z M45.074,24.334c-0.074-0.269-0.273-0.507-0.561-0.679l-0.94-0.564v-0.805
		l2.188-1.832l2.194,1.832v0.805l-0.948,0.565c-0.279,0.171-0.479,0.41-0.553,0.678c-0.368,1.309,0.629,12.292,2.692,20.995
		l-6.771-0.001C44.45,36.613,45.447,25.635,45.074,24.334z M53.077,47.703l-1.217,1.719H39.408l-1.405-1.719H53.077z M39.876,53.252
		c0.197-0.461,0.404-0.951,0.604-1.458l10.562,0.003c0.193,0.499,0.381,0.931,0.613,1.45c0.296,0.689,0.577,1.312,0.859,1.912
		H38.991C39.293,54.525,39.601,53.878,39.876,53.252z M36.698,57.537c0.005,0,0.008,0,0.008,0c0.013,0,0.013,0,0.021,0h18.058
		c0.002,0,0.002,0,0.008,0h0.001h3.624l-1.301,1.999H34.218l-1.502-1.999H36.698z M60.821,78.165
		c-0.022-0.324-0.066-0.711-0.112-1.158c-0.208-1.797-3.27-9.06-13.617-9.06H44.44c-10.309,0-13.403,7.257-13.612,9.057
		c-0.054,0.447-0.095,0.834-0.123,1.155H19.271l0.039-0.819l0.943-0.698c5.315-3.942,10.35-7.701,14.958-14.733l21.08,0.006
		c4.475,6.919,9.48,10.656,14.777,14.576l1.15,0.852l0.042,0.817H60.821V78.165z"/>
</g>
</svg>
