<?xml version="1.0" encoding="utf-8"?>
<!-- Generator: Adobe Illustrator 16.0.0, SVG Export Plug-In . SVG Version: 6.00 Build 0)  -->
<!DOCTYPE svg PUBLIC "-//W3C//DTD SVG 1.1//EN" "http://www.w3.org/Graphics/SVG/1.1/DTD/svg11.dtd">
<svg version="1.1" id="Layer_1" xmlns="http://www.w3.org/2000/svg" xmlns:xlink="http://www.w3.org/1999/xlink" x="0px" y="0px"
	 width="90px" height="90px" viewBox="0 0 90 90" enable-background="new 0 0 90 90" xml:space="preserve">
<path fill="#9ECC46" stroke="#9ECC46" stroke-miterlimit="10" d="M81.182,66.258c1.473-3.845,0.917-8.745-1.516-13.445
	c-2.934-5.656-7.983-9.873-13.519-11.28c-4.523-1.153-7.98,1.197-11.03,3.268c-2.43,1.656-4.729,3.218-7.49,3.218
	c-1.375,0-2.759-0.395-4.226-1.203c-0.828-0.457-1.87-0.153-2.328,0.671c-0.458,0.832-0.157,1.871,0.673,2.333
	c1.988,1.094,3.911,1.627,5.881,1.627c3.817,0,6.795-2.027,9.418-3.812c2.806-1.907,5.225-3.548,8.258-2.783
	c4.599,1.172,8.831,4.737,11.316,9.538c1.958,3.776,2.467,7.755,1.362,10.643c-2.741,7.163-15.443,11.842-32.433,11.917
	c-7.735,0.047-25.815,0.112-30.888-9.23c-2.433-4.482-1.104-13.674,2.905-20.076c1.628-2.598,5.113-6.948,10.205-6.691
	c1.427,0.066,2.856,0.622,4.52,1.711v22.289c0,0.168,0.031,0.26,0.077,0.325c0.375,1.264,2.868,2.247,5.921,2.247
	c3.312,0,5.998-1.153,5.998-2.572s-2.686-2.57-5.998-2.57c-0.925,0-1.79,0.096-2.572,0.258V30.023l16.191-8.096
	c0.578-0.292,0.946-0.882,0.946-1.531s-0.368-1.244-0.946-1.535L34.77,10.292c-0.531-0.263-1.16-0.236-1.668,0.076
	c-0.503,0.314-0.811,0.863-0.811,1.459v17.101c0,0.027,0,0.05,0,0.072V38.7c-1.26-0.608-2.726-1.098-4.361-1.172
	c-5.064-0.241-9.772,2.716-13.268,8.297c-4.742,7.57-6.065,17.906-3.011,23.528c5.662,10.432,22.513,11.027,32.125,11.027
	c0.657,0,1.28-0.002,1.863-0.006C64.262,80.296,77.882,74.885,81.182,66.258 M35.717,14.6l11.592,5.795L35.717,26.19V14.6z"/>
</svg>
