<?xml version="1.0" encoding="utf-8"?>
<!-- Generator: Adobe Illustrator 16.0.0, SVG Export Plug-In . SVG Version: 6.00 Build 0)  -->
<!DOCTYPE svg PUBLIC "-//W3C//DTD SVG 1.1//EN" "http://www.w3.org/Graphics/SVG/1.1/DTD/svg11.dtd">
<svg version="1.1" id="Layer_1" xmlns="http://www.w3.org/2000/svg" xmlns:xlink="http://www.w3.org/1999/xlink" x="0px" y="0px"
	 width="90px" height="90px" viewBox="0 0 90 90" enable-background="new 0 0 90 90" xml:space="preserve">
<path fill="#FDBB53" d="M19.265,81.819h52.42c3.387,0,6.145-2.755,6.145-6.145V46.224c0.073,0.003,0.144,0.02,0.211,0.02
	c4.813,0,6.916-6.011,2.497-9.453c-3.31-2.578-23.163-18.123-30.889-24.175c-2.36-1.849-5.91-1.849-8.271,0
	c-7.726,6.052-27.58,21.597-30.889,24.175c-4.275,3.338-2.567,9.417,2.627,9.333v29.552C13.117,79.064,15.875,81.819,19.265,81.819
	 M37.651,78.396V60.645c0-1.497,1.22-2.721,2.721-2.721h10.123c1.501,0,2.721,1.224,2.721,2.721v17.752H37.651z M74.407,45.127
	v30.548c0,1.501-1.221,2.722-2.722,2.722H56.64V60.645c0-3.39-2.759-6.144-6.145-6.144H40.372c-3.386,0-6.144,2.754-6.144,6.144
	v17.752H19.265c-1.501,0-2.725-1.221-2.725-2.722V45.134l26.744-20.698c1.267-0.992,3.213-0.969,4.46,0L74.407,45.127z
	 M75.544,41.784L49.85,21.738c-2.44-1.904-6.051-2.048-8.672,0L15.504,41.768c-3.654,2.766-5.232-0.47-2.909-2.276
	c3.31-2.578,23.163-18.126,30.896-24.182c1.17-0.918,2.875-0.918,4.045,0c7.732,6.056,27.586,21.604,30.896,24.182
	C80.782,41.319,79.134,44.498,75.544,41.784"/>
</svg>
