<?xml version="1.0" encoding="utf-8"?>
<!-- Generator: Adobe Illustrator 16.0.0, SVG Export Plug-In . SVG Version: 6.00 Build 0)  -->
<!DOCTYPE svg PUBLIC "-//W3C//DTD SVG 1.1//EN" "http://www.w3.org/Graphics/SVG/1.1/DTD/svg11.dtd">
<svg version="1.1" id="Layer_1" xmlns="http://www.w3.org/2000/svg" xmlns:xlink="http://www.w3.org/1999/xlink" x="0px" y="0px"
	 width="90px" height="90px" viewBox="0 0 90 90" enable-background="new 0 0 90 90" xml:space="preserve">
<path fill="#BB8A41" d="M65.963,10.497c1.662,0.001,2.6,1.47,2.152,4.204c11.078,9.019,16.477,22.144,14.949,36.348
	c3.746,2.723,2.26,5.651-2.955,5.951C63.246,69.165,48.716,74.23,28.172,77.45c-1.573,1.39-3.018,2.053-4.135,2.053
	c-1.662,0-2.599-1.467-2.152-4.203C10.807,66.281,5.408,53.156,6.934,38.953c-3.745-2.723-2.258-5.652,2.957-5.952
	C26.754,20.837,41.283,15.772,61.826,12.55C63.4,11.161,64.846,10.497,65.963,10.497 M65.963,6.069
	c-1.938,0-3.992,0.789-6.004,2.295C38.346,11.87,24.11,17.471,8.279,28.71c-5.616,0.762-7.183,3.999-7.604,5.434
	c-0.342,1.167-0.727,3.844,1.666,6.596c-0.848,14.045,4.543,27.147,15.03,36.528c0.144,2.111,0.934,3.524,1.685,4.406
	c1.237,1.456,3.005,2.258,4.981,2.258c1.938,0,3.992-0.787,6.003-2.295c21.614-3.506,35.851-9.107,51.683-20.346
	c5.613-0.764,7.18-4,7.603-5.434c0.342-1.166,0.727-3.846-1.666-6.596c0.85-14.046-4.541-27.147-15.029-36.528
	c-0.144-2.112-0.935-3.524-1.685-4.408C69.707,6.872,67.939,6.07,65.963,6.069L65.963,6.069L65.963,6.069z"/>
<path fill="#BB8A41" d="M20.434,78.553c0.497,0,0.95-0.338,1.074-0.843c0.372-1.517,2.52-3.067,3.243-3.491
	c0.307-0.179,0.509-0.494,0.542-0.85c0.034-0.354-0.105-0.704-0.374-0.938c-0.137-0.121-13.773-12.275-13.773-31.537
	c0-0.547-0.402-1.013-0.942-1.095c-0.036-0.006-3.627-0.573-4.933-2.77c-0.312-0.526-0.988-0.699-1.516-0.387
	c-0.526,0.313-0.699,0.992-0.387,1.517c1.354,2.279,4.118,3.26,5.572,3.631c0.343,16.834,10.215,28.061,13.495,31.333
	c-1.115,0.854-2.647,2.304-3.078,4.06c-0.146,0.594,0.217,1.192,0.812,1.338C20.257,78.543,20.346,78.553,20.434,78.553z"/>
<path fill="#BB8A41" d="M15.143,70.697c0.249,0,0.499-0.082,0.706-0.252l3.427-2.836c0.471-0.391,0.537-1.088,0.148-1.561
	c-0.391-0.47-1.087-0.533-1.56-0.146l-3.427,2.836c-0.471,0.391-0.537,1.088-0.148,1.56C14.509,70.562,14.824,70.697,15.143,70.697z
	"/>
<path fill="#BB8A41" d="M9.731,62.562c0.154,0,0.312-0.031,0.462-0.101l4.524-2.071c0.555-0.254,0.8-0.91,0.544-1.468
	c-0.253-0.556-0.909-0.803-1.467-0.544l-4.524,2.07c-0.555,0.254-0.8,0.91-0.545,1.468C8.912,62.324,9.313,62.562,9.731,62.562z"/>
<path fill="#BB8A41" d="M6.04,52.479c0.054,0,0.108-0.004,0.163-0.013l5.135-0.759c0.604-0.09,1.022-0.652,0.934-1.258
	c-0.09-0.604-0.643-1.031-1.257-0.932l-5.134,0.76c-0.605,0.089-1.023,0.652-0.935,1.256C5.028,52.084,5.501,52.479,6.04,52.479z"/>
</svg>
