<?xml version="1.0" encoding="utf-8"?>
<!-- Generator: Adobe Illustrator 16.0.0, SVG Export Plug-In . SVG Version: 6.00 Build 0)  -->
<!DOCTYPE svg PUBLIC "-//W3C//DTD SVG 1.1//EN" "http://www.w3.org/Graphics/SVG/1.1/DTD/svg11.dtd">
<svg version="1.1" id="Layer_6" xmlns="http://www.w3.org/2000/svg" xmlns:xlink="http://www.w3.org/1999/xlink" x="0px" y="0px"
	 width="100px" height="100px" viewBox="0 0 100 100" enable-background="new 0 0 100 100" xml:space="preserve">
<g>
	<path fill="#54B3E5" d="M66.875,19.062c0-3.654-2.896-5.625-5.625-5.625H40.156c-5.158,0-7.031,3.365-7.031,5.625v7.031H27.5
		v60.469h45V26.094h-5.625V19.062z M38.75,26.094V19.32c0.111-0.072,0.487-0.257,1.406-0.257H61.17c0.023,0,0.053,0.004,0.08,0.01
		v7.021H38.75z"/>
	<path fill="#54B3E5" d="M7.812,31.875v6.875v35.312v6.875c0,3.105,2.519,5.625,5.625,5.625h8.438V26.094h-8.438
		C10.331,26.094,7.812,28.768,7.812,31.875z"/>
	<path fill="#54B3E5" d="M86.562,26.094h-8.438v60.468h8.438c3.105,0,5.625-2.519,5.625-5.625v-6.875V38.75v-6.875
		C92.188,28.768,89.669,26.094,86.562,26.094z"/>
</g>
</svg>
