<?xml version="1.0" encoding="utf-8"?>
<!-- Generator: Adobe Illustrator 16.0.0, SVG Export Plug-In . SVG Version: 6.00 Build 0)  -->
<!DOCTYPE svg PUBLIC "-//W3C//DTD SVG 1.1//EN" "http://www.w3.org/Graphics/SVG/1.1/DTD/svg11.dtd">
<svg version="1.1" id="Layer_1" xmlns="http://www.w3.org/2000/svg" xmlns:xlink="http://www.w3.org/1999/xlink" x="0px" y="0px"
	 width="90px" height="90px" viewBox="0 0 90 90" enable-background="new 0 0 90 90" xml:space="preserve">
<path fill="#54B3E5" stroke="#54B3E5" stroke-miterlimit="10" d="M44.814,80.265c-4.597,0-15.285-0.456-15.285-4.71
	c0-2.99,5.683-4.866,8.126-5.536c1.371-0.377,2.247-1.617,2.238-3.163L39.81,55.343c-0.007-0.986-0.868-2.313-1.586-2.437
	c-6.682-1.864-11.563-7.014-13.561-14.175c-1.516-7.802-0.716-12.585,0.089-21.317c0.381-4.096,3.77-7.185,7.888-7.185H56.82
	c4.09,0,7.476,3.069,7.877,7.141c0.895,9.034,1.666,13.538,0.442,20.818c-1.832,7.286-6.857,12.725-13.468,14.673
	c-0.859,0.168-1.662,1.481-1.68,2.476L49.859,66.85c-0.02,1.481,0.965,2.78,2.395,3.175c1.842,0.507,7.844,2.393,7.844,5.53
	C60.098,79.809,49.411,80.265,44.814,80.265 M33.276,75.444c1.57,0.701,5.837,1.493,11.538,1.493c5.896,0,10.259-0.851,11.688-1.564
	c-0.62-0.403-2.28-1.358-5.127-2.139c-2.888-0.793-4.879-3.43-4.844-6.425l0.134-11.513c0.032-2.382,1.745-5.228,4.248-5.663
	c5.289-1.573,9.457-6.125,10.975-12.126c1.1-6.646,0.387-10.806-0.504-19.811c-0.23-2.361-2.193-4.142-4.564-4.142H32.64
	c-2.388,0-4.352,1.792-4.569,4.165c-0.797,8.582-1.554,13.092-0.173,20.25c1.646,5.881,5.688,10.195,11.061,11.695
	c2.371,0.41,4.158,3.32,4.178,5.651l0.085,11.52c0.021,3.047-1.862,5.618-4.688,6.393C35.885,73.95,34.106,74.853,33.276,75.444"/>
<path fill="#54B3E5" stroke="#54B3E5" stroke-miterlimit="10" d="M44.918,47.528L44.918,47.528c-8.253,0-14.972-6.794-14.972-15.136
	l0.332-6.151c0.189-1.896,1.433-3.437,3.174-3.999c4.086-1.317,7.796-0.581,11.999,0.396c2.441,0.565,4.707,1.267,7.197,0.886
	c0.562-0.084,1.213-0.184,2.182-0.184c2.957,0.038,4.589,2.113,4.553,4.361l0.303,4.414C59.633,40.079,53.756,47.528,44.918,47.528
	 M34.473,25.41c-0.487,0.156-0.829,0.582-0.881,1.088l-0.322,5.98C33.273,38.902,38.498,44.2,44.918,44.2
	c6.867,0,11.403-5.811,11.444-11.984l-0.302-4.427c0.007-0.662-0.405-1.102-0.919-1.114c-1.176,0.034-1.561,0.073-1.992,0.139
	c-3.031,0.469-5.801-0.323-8.451-0.934C41.026,25.023,37.841,24.329,34.473,25.41"/>
</svg>
